<?xml version="1.0" encoding="UTF-8"?>
<svg xmlns="http://www.w3.org/2000/svg" viewBox="0 0 200 200" width="200" height="200">
  <defs>
    <style>
      .p1{fill:#ffb3c8}
      .p2{fill:#ffe6a5}
      .p3{fill:#b5e8d6}
      .p4{fill:#c6d8ff}
      .p5{fill:#d8b4ff}
      .t{opacity:0.88}
    </style>
  </defs>
  <rect width="100%" height="100%" fill="#fff0ff" opacity="0.18"/>
  <g transform="translate(10,10) scale(1.1)">
    <circle class="p2 t" cx="20" cy="20" r="16" />
    <circle class="p3 t" cx="52" cy="28" r="10" />
    <circle class="p4 t" cx="108" cy="38" r="12" />
    <circle class="p1 t" cx="146" cy="26" r="10" />
    <g transform="translate(30,90)">
      <path class="p5 t" d="M10 10 C20 -10, 60 -10, 70 10 C80 30, 40 40, 10 10 Z"/>
    </g>
    <g transform="translate(6,60)">
      <ellipse class="p1 t" cx="18" cy="10" rx="6" ry="4"/>
      <ellipse class="p2 t" cx="34" cy="6" rx="5" ry="3"/>
      <ellipse class="p3 t" cx="8" cy="6" rx="5" ry="3"/>
    </g>
    <g transform="translate(120,100) scale(0.9)">
      <circle class="p3 t" cx="18" cy="18" r="14"/>
      <polygon class="p4 t" points="6,12 2,4 14,8"/>
      <polygon class="p4 t" points="30,12 36,4 24,8"/>
    </g>
    <g transform="translate(160,70)">
      <path class="p1 t" d="M5 10 C12 0, 20 0, 25 10 C28 18, 14 24, 5 10 Z"/>
      <circle class="p5 t" cx="34" cy="8" r="4"/>
    </g>
    <g transform="translate(90,150)">
      <circle class="p2 t" cx="12" cy="12" r="5"/>
      <path class="p4 t" d="M20 8 l4 6 -8 0 z"/>
    </g>
    <g transform="translate(130,40)">
      <path class="p5 t" d="M10 0 c8 10 18 10 26 0 c-8 6 -18 6 -26 0 z"/>
      <circle class="p2 t" cx="28" cy="4" r="4"/>
    </g>
  </g>
</svg>
